<svg xmlns="http://www.w3.org/2000/svg" xmlns:xlink="http://www.w3.org/1999/xlink" width="500" zoomAndPan="magnify" viewBox="0 0 375 374.999991" height="500" preserveAspectRatio="xMidYMid meet" version="1.0"><defs><clipPath id="b8d97cb3a8"><path d="M 1 30.234375 L 375 30.234375 L 375 344 L 1 344 Z M 1 30.234375 " clip-rule="nonzero"/></clipPath></defs><g clip-path="url(#b8d97cb3a8)"><path fill="#ffffff" d="M 367.765625 30.316406 L 142.398438 160.429688 C 141.824219 160.007812 141.226562 159.625 140.605469 159.273438 L 10.660156 85.910156 C 9.792969 85.421875 8.972656 84.867188 8.199219 84.246094 C 7.421875 83.625 6.699219 82.945312 6.03125 82.210938 C 5.367188 81.472656 4.761719 80.6875 4.222656 79.855469 C 3.679688 79.023438 3.210938 78.152344 2.808594 77.242188 C 2.410156 76.332031 2.085938 75.398438 1.835938 74.433594 C 1.585938 73.472656 1.414062 72.5 1.320312 71.507812 C 1.226562 70.519531 1.210938 69.53125 1.277344 68.539062 C 1.34375 67.546875 1.488281 66.566406 1.710938 65.601562 C 1.9375 64.632812 2.234375 63.6875 2.609375 62.769531 C 2.984375 61.847656 3.433594 60.964844 3.949219 60.117188 C 4.46875 59.269531 5.050781 58.46875 5.695312 57.710938 C 6.34375 56.957031 7.042969 56.261719 7.804688 55.617188 C 8.5625 54.976562 9.367188 54.398438 10.21875 53.886719 C 11.070312 53.375 11.957031 52.933594 12.878906 52.566406 C 13.800781 52.195312 14.746094 51.902344 15.714844 51.6875 C 16.683594 51.46875 17.664062 51.328125 18.65625 51.269531 Z M 149.636719 172.960938 C 149.714844 173.671875 149.75 174.382812 149.742188 175.097656 L 148.3125 324.316406 C 148.300781 325.308594 148.371094 326.296875 148.523438 327.28125 C 148.671875 328.261719 148.898438 329.226562 149.203125 330.171875 C 149.507812 331.117188 149.886719 332.03125 150.335938 332.917969 C 150.789062 333.800781 151.308594 334.644531 151.894531 335.445312 C 152.480469 336.246094 153.128906 336.996094 153.835938 337.691406 C 154.542969 338.390625 155.304688 339.027344 156.113281 339.601562 C 156.921875 340.175781 157.773438 340.683594 158.664062 341.121094 C 159.554688 341.558594 160.476562 341.925781 161.425781 342.214844 C 162.378906 342.503906 163.34375 342.71875 164.328125 342.851562 C 165.3125 342.988281 166.300781 343.042969 167.292969 343.019531 C 168.285156 342.992188 169.273438 342.890625 170.25 342.707031 C 171.222656 342.527344 172.179688 342.265625 173.113281 341.929688 C 174.050781 341.59375 174.953125 341.1875 175.820312 340.703125 C 176.6875 340.222656 177.515625 339.675781 178.296875 339.0625 C 179.078125 338.449219 179.804688 337.777344 180.476562 337.046875 C 181.148438 336.316406 181.757812 335.535156 182.308594 334.707031 L 375 42.851562 Z M 149.636719 172.960938 " fill-opacity="1" fill-rule="nonzero"/></g></svg>