<svg xmlns="http://www.w3.org/2000/svg" xmlns:xlink="http://www.w3.org/1999/xlink" width="500" zoomAndPan="magnify" viewBox="0 0 375 374.999991" height="500" preserveAspectRatio="xMidYMid meet" version="1.2"><defs><clipPath id="532e7ddb06"><path d="M 52.753906 248 L 128 248 L 128 313 L 52.753906 313 Z M 52.753906 248 "/></clipPath><clipPath id="bda909c81a"><path d="M 12 48.066406 L 333 48.066406 L 333 286 L 12 286 Z M 12 48.066406 "/></clipPath><clipPath id="ff1fa55518"><path d="M 321.042969 114.226562 C 292.164062 77.046875 214.59375 60.570312 175.691406 52.566406 C 127.824219 42.644531 70.929688 45.949219 41.023438 93.851562 C 13.632812 137.78125 0.371094 209.859375 25.972656 257.03125 C 40.890625 284.488281 70.132812 290.835938 98.21875 281.246094 C 114.988281 275.523438 130.238281 265.664062 145.917969 257.59375 C 165.765625 247.371094 187.402344 243.632812 209.398438 241.054688 C 227.328125 239.035156 245.355469 237.449219 262.65625 231.890625 C 280.816406 226.035156 296.066406 212.339844 308.109375 197.949219 C 338.109375 162.160156 337.351562 134.867188 321.042969 114.226562 Z M 321.042969 114.226562 "/></clipPath><clipPath id="868fb43452"><path d="M 12 73 L 318 73 L 318 286 L 12 286 Z M 12 73 "/></clipPath><clipPath id="9ec81151f0"><path d="M 321.042969 114.226562 C 292.164062 77.046875 214.59375 60.570312 175.691406 52.566406 C 127.824219 42.644531 70.929688 45.949219 41.023438 93.851562 C 13.632812 137.78125 0.371094 209.859375 25.972656 257.03125 C 40.890625 284.488281 70.132812 290.835938 98.21875 281.246094 C 114.988281 275.523438 130.238281 265.664062 145.917969 257.59375 C 165.765625 247.371094 187.402344 243.632812 209.398438 241.054688 C 227.328125 239.035156 245.355469 237.449219 262.65625 231.890625 C 280.816406 226.035156 296.066406 212.339844 308.109375 197.949219 C 338.109375 162.160156 337.351562 134.867188 321.042969 114.226562 Z M 321.042969 114.226562 "/></clipPath><clipPath id="4f3501b39c"><path d="M 16 96 L 333 96 L 333 286 L 16 286 Z M 16 96 "/></clipPath><clipPath id="09f6e57f9c"><path d="M 321.042969 114.226562 C 292.164062 77.046875 214.59375 60.570312 175.691406 52.566406 C 127.824219 42.644531 70.929688 45.949219 41.023438 93.851562 C 13.632812 137.78125 0.371094 209.859375 25.972656 257.03125 C 40.890625 284.488281 70.132812 290.835938 98.21875 281.246094 C 114.988281 275.523438 130.238281 265.664062 145.917969 257.59375 C 165.765625 247.371094 187.402344 243.632812 209.398438 241.054688 C 227.328125 239.035156 245.355469 237.449219 262.65625 231.890625 C 280.816406 226.035156 296.066406 212.339844 308.109375 197.949219 C 338.109375 162.160156 337.351562 134.867188 321.042969 114.226562 Z M 321.042969 114.226562 "/></clipPath></defs><g id="d7a18391f3"><g clip-rule="nonzero" clip-path="url(#532e7ddb06)"><path style=" stroke:none;fill-rule:nonzero;fill:#e07a5f;fill-opacity:1;" d="M 57.382812 283.042969 C 54.898438 280.179688 53.078125 276.628906 52.917969 272.867188 C 52.753906 269.105469 54.464844 265.164062 57.726562 263.195312 C 60.132812 261.746094 63.078125 261.46875 65.644531 260.316406 C 69.335938 258.664062 71.9375 255.382812 74.898438 252.65625 C 77.859375 249.929688 81.832031 247.582031 85.773438 248.527344 C 89.242188 249.359375 91.628906 252.496094 94.867188 253.984375 C 99.488281 256.105469 104.878906 254.546875 109.84375 253.390625 C 114.808594 252.234375 120.738281 251.761719 124.332031 255.324219 C 127.226562 258.191406 127.527344 262.722656 126.988281 266.730469 C 126.453125 270.742188 125.257812 274.753906 125.820312 278.761719 C 126.242188 281.757812 127.632812 284.574219 127.898438 287.589844 C 128.3125 292.265625 125.996094 296.710938 123.746094 300.851562 C 121.265625 305.414062 118.339844 310.367188 113.355469 312.011719 C 109.1875 313.390625 104.613281 312.070312 100.597656 310.308594 C 96.582031 308.546875 92.667969 306.308594 88.304688 305.773438 C 83.324219 305.15625 78.382812 306.828125 73.402344 307.464844 C 68.425781 308.097656 62.605469 307.308594 59.765625 303.238281 C 55.65625 297.347656 61.625 287.9375 57.382812 283.042969 Z M 57.382812 283.042969 "/></g><g clip-rule="nonzero" clip-path="url(#bda909c81a)"><g clip-rule="nonzero" clip-path="url(#ff1fa55518)"><path style=" stroke:none;fill-rule:nonzero;fill:#81b29a;fill-opacity:1;" d="M 321.042969 114.226562 C 292.164062 77.046875 214.59375 60.570312 175.691406 52.566406 C 127.824219 42.644531 70.929688 45.949219 41.023438 93.851562 C 13.632812 137.78125 0.371094 209.859375 25.972656 257.03125 C 40.890625 284.488281 70.132812 290.835938 98.21875 281.246094 C 114.988281 275.523438 130.238281 265.664062 145.917969 257.59375 C 165.765625 247.371094 187.402344 243.632812 209.398438 241.054688 C 227.328125 239.035156 245.355469 237.449219 262.65625 231.890625 C 280.816406 226.035156 296.066406 212.339844 308.109375 197.949219 C 338.109375 162.160156 337.351562 134.867188 321.042969 114.226562 Z M 321.042969 114.226562 "/></g></g><g clip-rule="nonzero" clip-path="url(#868fb43452)"><g clip-rule="nonzero" clip-path="url(#9ec81151f0)"><path style=" stroke:none;fill-rule:nonzero;fill:#fef6eb;fill-opacity:1;" d="M 6.027344 292.128906 C -41.078125 237.910156 68.050781 226.265625 100.929688 219.089844 C 124.75 213.894531 140.097656 200.53125 148.566406 176.78125 C 154.71875 159.511719 156.140625 140.988281 162.292969 123.851562 C 162.746094 122.417969 163.253906 121 163.8125 119.601562 C 164.375 118.207031 164.988281 116.832031 165.652344 115.480469 C 166.316406 114.128906 167.03125 112.804688 167.796875 111.507812 C 168.5625 110.210938 169.375 108.945312 170.234375 107.710938 C 171.097656 106.476562 172.003906 105.277344 172.957031 104.109375 C 173.90625 102.941406 174.902344 101.816406 175.941406 100.722656 C 176.980469 99.632812 178.054688 98.582031 179.175781 97.574219 C 180.292969 96.566406 181.445312 95.601562 182.636719 94.679688 C 183.828125 93.757812 185.050781 92.882812 186.308594 92.054688 C 187.566406 91.226562 188.851562 90.445312 190.167969 89.714844 C 191.484375 88.984375 192.828125 88.304688 194.195312 87.671875 C 195.5625 87.042969 196.953125 86.46875 198.363281 85.945312 C 199.773438 85.421875 201.203125 84.949219 202.652344 84.535156 C 204.097656 84.121094 205.558594 83.761719 207.035156 83.457031 C 208.507812 83.152344 209.992188 82.902344 211.484375 82.710938 C 212.980469 82.519531 214.476562 82.382812 215.980469 82.304688 C 237.78125 80.417969 259.449219 84.6875 281.148438 85.8125 C 293.253906 86.441406 308.4375 86.96875 316.972656 76.746094 C 318.660156 74.695312 315.75 71.753906 314.0625 73.804688 C 302.816406 87.300781 276.878906 81.476562 261.730469 80.023438 C 241.882812 78.105469 221.308594 75.625 201.757812 80.386719 C 161.335938 90.3125 156.835938 130.46875 147.9375 164.507812 C 143.042969 183.132812 133.582031 203.972656 114.328125 211.382812 C 104.40625 215.152344 93.324219 216.476562 83.035156 218.492188 C 57.433594 223.488281 28.554688 227.523438 6.058594 241.648438 C -16.433594 255.773438 -12.960938 276.546875 3.246094 295.070312 C 5 297.058594 7.910156 294.144531 6.160156 292.128906 Z M 6.027344 292.128906 "/></g></g><g clip-rule="nonzero" clip-path="url(#4f3501b39c)"><g clip-rule="nonzero" clip-path="url(#09f6e57f9c)"><path style=" stroke:none;fill-rule:nonzero;fill:#fef6eb;fill-opacity:1;" d="M 32.488281 315.285156 C -14.613281 261.066406 94.515625 249.421875 127.394531 242.246094 C 151.210938 237.050781 166.5625 223.6875 175.027344 199.9375 C 181.183594 182.667969 182.605469 164.144531 188.757812 147.007812 C 189.210938 145.574219 189.714844 144.15625 190.277344 142.757812 C 190.835938 141.359375 191.449219 139.988281 192.113281 138.636719 C 192.78125 137.285156 193.496094 135.960938 194.257812 134.664062 C 195.023438 133.367188 195.839844 132.101562 196.699219 130.867188 C 197.558594 129.632812 198.46875 128.429688 199.417969 127.265625 C 200.371094 126.097656 201.367188 124.96875 202.40625 123.878906 C 203.441406 122.789062 204.519531 121.738281 205.636719 120.730469 C 206.753906 119.722656 207.910156 118.753906 209.101562 117.835938 C 210.289062 116.914062 211.515625 116.039062 212.773438 115.207031 C 214.027344 114.378906 215.316406 113.601562 216.632812 112.871094 C 217.949219 112.136719 219.289062 111.457031 220.65625 110.828125 C 222.027344 110.199219 223.414062 109.625 224.828125 109.101562 C 226.238281 108.574219 227.667969 108.105469 229.113281 107.691406 C 230.5625 107.277344 232.023438 106.914062 233.496094 106.609375 C 234.972656 106.304688 236.457031 106.058594 237.949219 105.867188 C 239.441406 105.675781 240.941406 105.539062 242.445312 105.460938 C 264.246094 103.574219 285.910156 107.84375 307.609375 108.96875 C 319.71875 109.597656 334.902344 110.125 343.4375 99.902344 C 345.125 97.851562 342.210938 94.910156 340.523438 96.960938 C 329.277344 110.457031 303.34375 104.632812 288.195312 103.179688 C 268.347656 101.261719 247.769531 98.777344 228.222656 103.542969 C 187.796875 113.464844 183.300781 153.625 174.402344 187.664062 C 169.503906 206.285156 160.042969 227.128906 140.792969 234.535156 C 130.867188 238.308594 119.785156 239.632812 109.5 241.648438 C 83.894531 246.644531 55.015625 250.679688 32.523438 264.804688 C 10.027344 278.929688 13.503906 299.703125 29.710938 318.226562 C 31.464844 320.210938 34.375 317.300781 32.621094 315.285156 Z M 32.488281 315.285156 "/></g></g><path style=" stroke:none;fill-rule:nonzero;fill:#f2cc8f;fill-opacity:1;" d="M 344.195312 172.050781 C 335.132812 169.535156 325.210938 173.042969 317.734375 177.707031 C 314.195312 179.855469 311.117188 182.570312 307.511719 184.785156 C 300.894531 188.886719 292.988281 175.324219 290.507812 171.320312 C 283.894531 160.40625 287.929688 144 277.277344 135.496094 C 262.027344 123.324219 244.03125 135.730469 235.53125 147.636719 C 169.371094 240.257812 362.820312 316.90625 372.546875 225.804688 C 374.695312 204.003906 367.519531 178.535156 344.195312 172.050781 Z M 344.195312 172.050781 "/><path style=" stroke:none;fill-rule:nonzero;fill:#3d405b;fill-opacity:1;" d="M 256.867188 290.472656 C 254.550781 285.832031 251.71875 281.53125 248.367188 277.574219 C 227.757812 252.398438 170.664062 249.523438 196.597656 295.007812 C 198.703125 298.566406 201.394531 301.609375 204.667969 304.136719 C 233.28125 326.894531 270.859375 319.847656 256.867188 290.472656 Z M 256.867188 290.472656 "/></g></svg>